<?xml version="1.0" standalone="no"?>
<!DOCTYPE svg PUBLIC "-//W3C//DTD SVG 20010904//EN"
 "http://www.w3.org/TR/2001/REC-SVG-20010904/DTD/svg10.dtd">
<svg version="1.0" xmlns="http://www.w3.org/2000/svg"
 width="225.000000pt" height="225.000000pt" viewBox="0 0 225.000000 225.000000"
 preserveAspectRatio="xMidYMid meet">
<metadata>
Created by potrace 1.16, written by Peter Selinger 2001-2019
</metadata>
<g transform="translate(0.000000,225.000000) scale(0.100000,-0.100000)"
fill="#000000" stroke="none">
<path d="M946 2104 c-202 -40 -361 -122 -507 -261 -100 -96 -156 -173 -214
-294 -73 -156 -90 -236 -90 -424 1 -188 19 -271 91 -424 102 -216 259 -373
476 -476 149 -70 243 -90 428 -89 124 1 170 5 232 22 344 94 606 338 707 660
52 168 62 285 36 452 -64 421 -371 744 -790 831 -106 22 -267 24 -369 3z m422
-565 l222 -94 -2 -324 -3 -323 -223 -94 c-123 -52 -229 -94 -235 -94 -7 0
-114 43 -240 97 l-227 96 2 321 3 321 225 97 c124 53 232 95 240 94 8 -2 115
-45 238 -97z"/>
<path d="M913 1502 l-203 -86 0 -292 0 -292 183 -77 c100 -43 195 -82 210 -87
24 -9 55 1 235 77 l207 87 -3 293 c-2 219 -6 294 -15 298 -7 3 -98 41 -204 86
-106 45 -196 81 -200 80 -4 0 -99 -39 -210 -87z m367 -33 c80 -34 148 -64 153
-68 7 -7 -275 -124 -299 -124 -20 0 -305 125 -299 131 5 5 279 117 295 121 2
1 70 -26 150 -60z m-343 -180 c82 -34 154 -66 161 -71 9 -8 12 -68 12 -239 0
-126 -3 -229 -6 -229 -5 0 -56 21 -251 102 l-73 30 0 234 c0 129 2 234 5 234
3 0 71 -28 152 -61z m553 -173 l0 -234 -72 -30 c-40 -17 -111 -47 -158 -66
-46 -20 -88 -36 -92 -36 -4 0 -8 103 -8 230 0 208 2 231 18 241 20 12 293 128
305 129 4 0 7 -105 7 -234z"/>
</g>
</svg>
